<svg width="156" height="24" viewBox="0 0 156 24" fill="none" xmlns="http://www.w3.org/2000/svg">
<path d="M0.162997 12.445V11.5217C1.16323 11.5217 1.85275 11.3234 2.23153 10.9268C2.61624 10.5303 2.80859 9.83783 2.80859 8.84943V5.40483C2.80859 4.64725 2.88258 3.99029 3.03054 3.43395C3.1785 2.87168 3.41525 2.41004 3.74077 2.049C4.06629 1.68205 4.49242 1.4098 5.01918 1.23224C5.55185 1.05469 6.19993 0.965908 6.96342 0.965908V2.31534C6.30054 2.31534 5.77083 2.42483 5.37429 2.64382C4.98366 2.85689 4.70253 3.19129 4.53089 3.64702C4.36518 4.10275 4.28232 4.68868 4.28232 5.40483V9.31996C4.28232 9.82303 4.22313 10.2699 4.10476 10.6605C3.98639 11.0452 3.77628 11.3707 3.47443 11.6371C3.17259 11.9034 2.75237 12.1046 2.21378 12.2408C1.68111 12.3769 0.997514 12.445 0.162997 12.445ZM6.96342 23.6932C6.19993 23.6932 5.55185 23.6044 5.01918 23.4268C4.49242 23.2493 4.06629 22.977 3.74077 22.6101C3.41525 22.2491 3.1785 21.7874 3.03054 21.2251C2.88258 20.6688 2.80859 20.0118 2.80859 19.2543V15.8097C2.80859 14.8213 2.61624 14.1288 2.23153 13.7322C1.85275 13.3357 1.16323 13.1374 0.162997 13.1374V12.2141C0.997514 12.2141 1.68111 12.2822 2.21378 12.4183C2.75237 12.5545 3.17259 12.7557 3.47443 13.022C3.77628 13.2884 3.98639 13.6168 4.10476 14.0075C4.22313 14.3922 4.28232 14.8361 4.28232 15.3391V19.2543C4.28232 19.9704 4.36518 20.5534 4.53089 21.0032C4.70253 21.4589 4.98366 21.7963 5.37429 22.0153C5.77083 22.2343 6.30054 22.3438 6.96342 22.3438V23.6932ZM0.162997 13.1374V11.5217H2.19602V13.1374H0.162997ZM14.9624 20V6.36364H18.5668V8.76953H18.7266C19.0107 7.97053 19.4841 7.3402 20.147 6.87855C20.8099 6.4169 21.603 6.18608 22.5263 6.18608C23.4614 6.18608 24.2575 6.41986 24.9144 6.88743C25.5714 7.34908 26.0094 7.97644 26.2283 8.76953H26.3704C26.6486 7.98828 27.1516 7.36387 27.8796 6.89631C28.6135 6.42282 29.4806 6.18608 30.4808 6.18608C31.7533 6.18608 32.7861 6.5915 33.5792 7.40234C34.3782 8.20727 34.7777 9.34955 34.7777 10.8292V20H31.0046V11.5749C31.0046 10.8174 30.8034 10.2492 30.4009 9.87038C29.9985 9.4916 29.4954 9.3022 28.8917 9.3022C28.2051 9.3022 27.6695 9.52119 27.2848 9.95916C26.9001 10.3912 26.7077 10.9624 26.7077 11.6726V20H23.0412V11.495C23.0412 10.8262 22.8488 10.2936 22.4641 9.89702C22.0853 9.50047 21.5852 9.3022 20.9638 9.3022C20.5436 9.3022 20.1648 9.40874 19.8274 9.6218C19.496 9.82895 19.2326 10.1219 19.0373 10.5007C18.842 10.8736 18.7443 11.3116 18.7443 11.8146V20H14.9624ZM37.7651 20V6.36364H41.3695V8.76953H41.5293C41.8134 7.97053 42.2869 7.3402 42.9498 6.87855C43.6126 6.4169 44.4057 6.18608 45.329 6.18608C46.2641 6.18608 47.0602 6.41986 47.7172 6.88743C48.3741 7.34908 48.8121 7.97644 49.0311 8.76953H49.1731C49.4513 7.98828 49.9544 7.36387 50.6824 6.89631C51.4163 6.42282 52.2833 6.18608 53.2836 6.18608C54.556 6.18608 55.5888 6.5915 56.3819 7.40234C57.1809 8.20727 57.5804 9.34955 57.5804 10.8292V20H53.8074V11.5749C53.8074 10.8174 53.6061 10.2492 53.2037 9.87038C52.8012 9.4916 52.2981 9.3022 51.6944 9.3022C51.0079 9.3022 50.4722 9.52119 50.0875 9.95916C49.7028 10.3912 49.5105 10.9624 49.5105 11.6726V20H45.8439V11.495C45.8439 10.8262 45.6516 10.2936 45.2669 9.89702C44.8881 9.50047 44.388 9.3022 43.7665 9.3022C43.3463 9.3022 42.9675 9.40874 42.6301 9.6218C42.2987 9.82895 42.0353 10.1219 41.84 10.5007C41.6447 10.8736 41.5471 11.3116 41.5471 11.8146V20H37.7651ZM66.658 20.2841C65.3855 20.2841 64.2847 19.9882 63.3555 19.3963C62.4263 18.7985 61.7071 17.9729 61.1982 16.9194C60.6951 15.86 60.4435 14.6407 60.4435 13.2617C60.4435 11.8886 60.6951 10.6694 61.1982 9.60405C61.7071 8.53279 62.4085 7.69531 63.3022 7.09162C64.2018 6.48201 65.2405 6.1772 66.4183 6.1772C67.1581 6.1772 67.8713 6.31333 68.5579 6.58558C69.2444 6.85192 69.86 7.26326 70.4045 7.8196C70.9549 8.37003 71.3899 9.06546 71.7095 9.90589C72.0291 10.7404 72.1889 11.7288 72.1889 12.8711V13.6523H61.5355V12.2585H70.5732C70.5732 11.3826 70.3956 10.5954 70.0405 9.89702C69.6913 9.19271 69.203 8.63636 68.5756 8.22798C67.9542 7.8196 67.2351 7.61541 66.4183 7.61541C65.5542 7.61541 64.7937 7.84624 64.1367 8.30788C63.4798 8.76953 62.9648 9.37914 62.592 10.1367C62.225 10.8943 62.0386 11.7229 62.0327 12.6225V13.457C62.0327 14.5401 62.2191 15.4871 62.592 16.2979C62.9708 17.1029 63.5064 17.7273 64.1989 18.1712C64.8913 18.6151 65.7111 18.837 66.658 18.837C67.3031 18.837 67.8684 18.7364 68.3537 18.5352C68.8449 18.3339 69.2563 18.0646 69.5877 17.7273C69.9251 17.384 70.1796 17.0082 70.3512 16.5998L71.8516 17.0881C71.6444 17.6622 71.3041 18.1919 70.8306 18.6772C70.363 19.1625 69.7771 19.5531 69.0728 19.8491C68.3744 20.1391 67.5695 20.2841 66.658 20.2841ZM80.5807 20.2841C79.4621 20.2841 78.4826 19.9882 77.6421 19.3963C76.8017 18.8045 76.1447 17.9788 75.6713 16.9194C75.2037 15.86 74.9699 14.6259 74.9699 13.2173C74.9699 11.8146 75.2037 10.5865 75.6713 9.53303C76.1447 8.4736 76.8047 7.65092 77.651 7.06499C78.4974 6.47313 79.4828 6.1772 80.6073 6.1772C81.4359 6.1772 82.1254 6.32517 82.6759 6.62109C83.2263 6.9111 83.6672 7.27214 83.9987 7.70419C84.3301 8.13625 84.5876 8.55646 84.771 8.96484H84.9131V1.81818H86.5022V20H84.9575V17.4698H84.771C84.5876 17.8841 84.3271 18.3103 83.9898 18.7482C83.6524 19.1803 83.2056 19.5443 82.6492 19.8402C82.0988 20.1361 81.4093 20.2841 80.5807 20.2841ZM80.7671 18.837C81.649 18.837 82.4007 18.5973 83.0221 18.1179C83.6436 17.6326 84.117 16.9667 84.4426 16.1204C84.774 15.2681 84.9397 14.2915 84.9397 13.1907C84.9397 12.1017 84.777 11.1399 84.4514 10.3054C84.1259 9.46496 83.6524 8.808 83.031 8.33452C82.4095 7.85511 81.6549 7.61541 80.7671 7.61541C79.8557 7.61541 79.0863 7.86399 78.4589 8.36115C77.8374 8.85239 77.364 9.51823 77.0384 10.3587C76.7188 11.1991 76.559 12.1431 76.559 13.1907C76.559 14.2501 76.7218 15.206 77.0473 16.0582C77.3728 16.9105 77.8463 17.5882 78.4678 18.0913C79.0951 18.5884 79.8616 18.837 80.7671 18.837ZM91.0033 20V6.36364H92.5392V8.45881H92.6546C92.9268 7.77225 93.4003 7.21887 94.075 6.79865C94.7557 6.37251 95.5251 6.15945 96.3833 6.15945C96.5135 6.15945 96.6585 6.1624 96.8183 6.16832C96.9781 6.17424 97.1112 6.18016 97.2178 6.18608V7.79297C97.1468 7.78113 97.0225 7.76338 96.8449 7.7397C96.6673 7.71603 96.475 7.70419 96.2678 7.70419C95.5576 7.70419 94.9243 7.85511 94.368 8.15696C93.8176 8.45289 93.3825 8.86423 93.0629 9.39098C92.7433 9.91773 92.5835 10.5185 92.5835 11.1932V20H91.0033ZM103.723 20.3107C102.9 20.3107 102.149 20.1509 101.468 19.8313C100.787 19.5058 100.246 19.0382 99.8434 18.4286C99.4409 17.8131 99.2397 17.0674 99.2397 16.1914C99.2397 15.5167 99.367 14.9485 99.6214 14.4869C99.8759 14.0252 100.237 13.6464 100.705 13.3505C101.172 13.0546 101.725 12.8208 102.365 12.6491C103.004 12.4775 103.708 12.3443 104.478 12.2496C105.241 12.1549 105.886 12.0721 106.413 12.0011C106.946 11.93 107.351 11.8176 107.629 11.6637C107.907 11.5098 108.047 11.2612 108.047 10.918V10.5984C108.047 9.66915 107.768 8.93821 107.212 8.40554C106.662 7.86695 105.868 7.59766 104.833 7.59766C103.85 7.59766 103.048 7.81368 102.427 8.24574C101.811 8.67779 101.379 9.18679 101.131 9.77273L99.6303 9.23118C99.9381 8.48544 100.364 7.89062 100.909 7.44673C101.453 6.99692 102.063 6.67436 102.738 6.47905C103.412 6.27782 104.096 6.1772 104.788 6.1772C105.309 6.1772 105.851 6.24527 106.413 6.38139C106.981 6.51752 107.508 6.75426 107.993 7.09162C108.479 7.42306 108.872 7.88767 109.174 8.48544C109.476 9.0773 109.627 9.82895 109.627 10.7404V20H108.047V17.8427H107.949C107.759 18.2451 107.478 18.6358 107.105 19.0146C106.733 19.3933 106.265 19.7041 105.703 19.9467C105.141 20.1894 104.481 20.3107 103.723 20.3107ZM103.936 18.8636C104.777 18.8636 105.504 18.6772 106.12 18.3043C106.736 17.9315 107.209 17.4373 107.54 16.8217C107.878 16.2003 108.047 15.5167 108.047 14.771V12.8001C107.928 12.9125 107.73 13.0131 107.452 13.1019C107.179 13.1907 106.863 13.2706 106.502 13.3416C106.147 13.4067 105.792 13.4629 105.436 13.5103C105.081 13.5576 104.762 13.5991 104.478 13.6346C103.708 13.7293 103.051 13.8772 102.507 14.0785C101.962 14.2797 101.545 14.5579 101.255 14.913C100.965 15.2622 100.82 15.712 100.82 16.2624C100.82 17.091 101.116 17.7332 101.708 18.1889C102.3 18.6387 103.042 18.8636 103.936 18.8636ZM115.411 11.4773V20H113.83V6.36364H115.366V8.5032H115.508C115.828 7.80481 116.325 7.2455 117 6.82528C117.68 6.39915 118.521 6.18608 119.521 6.18608C120.439 6.18608 121.243 6.37843 121.936 6.76314C122.634 7.14193 123.176 7.70123 123.561 8.44105C123.951 9.18087 124.146 10.0894 124.146 11.1665V20H122.566V11.2642C122.566 10.1456 122.253 9.26077 121.625 8.60973C121.004 7.95869 120.169 7.63317 119.122 7.63317C118.405 7.63317 117.769 7.78705 117.213 8.09481C116.657 8.40258 116.216 8.84647 115.89 9.42649C115.57 10.0006 115.411 10.6842 115.411 11.4773ZM133.608 20.2841C132.43 20.2841 131.389 19.9852 130.483 19.3874C129.583 18.7897 128.879 17.964 128.37 16.9105C127.861 15.8511 127.607 14.6289 127.607 13.244C127.607 11.8472 127.861 10.6191 128.37 9.55966C128.879 8.49432 129.583 7.66572 130.483 7.07386C131.389 6.47609 132.43 6.1772 133.608 6.1772C134.786 6.1772 135.825 6.47609 136.724 7.07386C137.624 7.67164 138.328 8.50024 138.837 9.55966C139.352 10.6191 139.609 11.8472 139.609 13.244C139.609 14.6289 139.355 15.8511 138.846 16.9105C138.337 17.964 137.63 18.7897 136.724 19.3874C135.825 19.9852 134.786 20.2841 133.608 20.2841ZM133.608 18.837C134.555 18.837 135.357 18.5825 136.014 18.0735C136.671 17.5645 137.168 16.8868 137.505 16.0405C137.849 15.1941 138.02 14.262 138.02 13.244C138.02 12.226 137.849 11.2908 137.505 10.4386C137.168 9.58629 136.671 8.9027 136.014 8.38778C135.357 7.87287 134.555 7.61541 133.608 7.61541C132.667 7.61541 131.865 7.87287 131.202 8.38778C130.545 8.9027 130.045 9.58629 129.702 10.4386C129.364 11.2908 129.196 12.226 129.196 13.244C129.196 14.262 129.364 15.1941 129.702 16.0405C130.045 16.8868 130.545 17.5645 131.202 18.0735C131.859 18.5825 132.661 18.837 133.608 18.837ZM155.525 12.2141V13.1374C154.525 13.1374 153.833 13.3357 153.448 13.7322C153.069 14.1288 152.88 14.8213 152.88 15.8097V19.2543C152.88 20.0118 152.806 20.6688 152.658 21.2251C152.51 21.7874 152.273 22.2491 151.947 22.6101C151.622 22.977 151.193 23.2493 150.66 23.4268C150.133 23.6044 149.488 23.6932 148.725 23.6932V22.3438C149.388 22.3438 149.914 22.2343 150.305 22.0153C150.702 21.7963 150.983 21.4589 151.148 21.0032C151.32 20.5534 151.406 19.9704 151.406 19.2543V15.3391C151.406 14.8361 151.465 14.3922 151.583 14.0075C151.702 13.6168 151.912 13.2884 152.214 13.022C152.516 12.7557 152.933 12.5545 153.466 12.4183C154.004 12.2822 154.691 12.2141 155.525 12.2141ZM148.725 0.965908C149.488 0.965908 150.133 1.05469 150.66 1.23224C151.193 1.4098 151.622 1.68205 151.947 2.049C152.273 2.41004 152.51 2.87168 152.658 3.43395C152.806 3.99029 152.88 4.64725 152.88 5.40483V8.84943C152.88 9.83783 153.069 10.5303 153.448 10.9268C153.833 11.3234 154.525 11.5217 155.525 11.5217V12.445C154.691 12.445 154.004 12.3769 153.466 12.2408C152.933 12.1046 152.516 11.9034 152.214 11.6371C151.912 11.3707 151.702 11.0452 151.583 10.6605C151.465 10.2699 151.406 9.82303 151.406 9.31996V5.40483C151.406 4.68868 151.32 4.10275 151.148 3.64702C150.983 3.19129 150.702 2.85689 150.305 2.64382C149.914 2.42483 149.388 2.31534 148.725 2.31534V0.965908ZM155.525 11.5217V13.1374H153.492V11.5217H155.525Z" fill="#151515"/>
</svg>
