<svg width="74" height="24" viewBox="0 0 74 24" fill="none" xmlns="http://www.w3.org/2000/svg">
<path d="M0.162997 12.445V11.5217C1.16323 11.5217 1.85275 11.3234 2.23153 10.9268C2.61624 10.5303 2.80859 9.83783 2.80859 8.84943V5.40483C2.80859 4.64725 2.88258 3.99029 3.03054 3.43395C3.1785 2.87168 3.41525 2.41004 3.74077 2.049C4.06629 1.68205 4.49242 1.4098 5.01918 1.23224C5.55185 1.05469 6.19993 0.965908 6.96342 0.965908V2.31534C6.30054 2.31534 5.77083 2.42483 5.37429 2.64382C4.98366 2.85689 4.70253 3.19129 4.53089 3.64702C4.36518 4.10275 4.28232 4.68868 4.28232 5.40483V9.31996C4.28232 9.82303 4.22313 10.2699 4.10476 10.6605C3.98639 11.0452 3.77628 11.3707 3.47443 11.6371C3.17259 11.9034 2.75237 12.1046 2.21378 12.2408C1.68111 12.3769 0.997514 12.445 0.162997 12.445ZM6.96342 23.6932C6.19993 23.6932 5.55185 23.6044 5.01918 23.4268C4.49242 23.2493 4.06629 22.977 3.74077 22.6101C3.41525 22.2491 3.1785 21.7874 3.03054 21.2251C2.88258 20.6688 2.80859 20.0118 2.80859 19.2543V15.8097C2.80859 14.8213 2.61624 14.1288 2.23153 13.7322C1.85275 13.3357 1.16323 13.1374 0.162997 13.1374V12.2141C0.997514 12.2141 1.68111 12.2822 2.21378 12.4183C2.75237 12.5545 3.17259 12.7557 3.47443 13.022C3.77628 13.2884 3.98639 13.6168 4.10476 14.0075C4.22313 14.3922 4.28232 14.8361 4.28232 15.3391V19.2543C4.28232 19.9704 4.36518 20.5534 4.53089 21.0032C4.70253 21.4589 4.98366 21.7963 5.37429 22.0153C5.77083 22.2343 6.30054 22.3438 6.96342 22.3438V23.6932ZM0.162997 13.1374V11.5217H2.19602V13.1374H0.162997ZM14.9624 20V6.36364H18.5668V8.76953H18.7266C19.0107 7.97053 19.4841 7.3402 20.147 6.87855C20.8099 6.4169 21.603 6.18608 22.5263 6.18608C23.4614 6.18608 24.2575 6.41986 24.9144 6.88743C25.5714 7.34908 26.0094 7.97644 26.2283 8.76953H26.3704C26.6486 7.98828 27.1516 7.36387 27.8796 6.89631C28.6135 6.42282 29.4806 6.18608 30.4808 6.18608C31.7533 6.18608 32.7861 6.5915 33.5792 7.40234C34.3782 8.20727 34.7777 9.34955 34.7777 10.8292V20H31.0046V11.5749C31.0046 10.8174 30.8034 10.2492 30.4009 9.87038C29.9985 9.4916 29.4954 9.3022 28.8917 9.3022C28.2051 9.3022 27.6695 9.52119 27.2848 9.95916C26.9001 10.3912 26.7077 10.9624 26.7077 11.6726V20H23.0412V11.495C23.0412 10.8262 22.8488 10.2936 22.4641 9.89702C22.0853 9.50047 21.5852 9.3022 20.9638 9.3022C20.5436 9.3022 20.1648 9.40874 19.8274 9.6218C19.496 9.82895 19.2326 10.1219 19.0373 10.5007C18.842 10.8736 18.7443 11.3116 18.7443 11.8146V20H14.9624ZM37.7651 20V6.36364H41.3695V8.76953H41.5293C41.8134 7.97053 42.2869 7.3402 42.9498 6.87855C43.6126 6.4169 44.4057 6.18608 45.329 6.18608C46.2641 6.18608 47.0602 6.41986 47.7172 6.88743C48.3741 7.34908 48.8121 7.97644 49.0311 8.76953H49.1731C49.4513 7.98828 49.9544 7.36387 50.6824 6.89631C51.4163 6.42282 52.2833 6.18608 53.2836 6.18608C54.556 6.18608 55.5888 6.5915 56.3819 7.40234C57.1809 8.20727 57.5804 9.34955 57.5804 10.8292V20H53.8074V11.5749C53.8074 10.8174 53.6061 10.2492 53.2037 9.87038C52.8012 9.4916 52.2981 9.3022 51.6944 9.3022C51.0079 9.3022 50.4722 9.52119 50.0875 9.95916C49.7028 10.3912 49.5105 10.9624 49.5105 11.6726V20H45.8439V11.495C45.8439 10.8262 45.6516 10.2936 45.2669 9.89702C44.8881 9.50047 44.388 9.3022 43.7665 9.3022C43.3463 9.3022 42.9675 9.40874 42.6301 9.6218C42.2987 9.82895 42.0353 10.1219 41.84 10.5007C41.6447 10.8736 41.5471 11.3116 41.5471 11.8146V20H37.7651ZM73.5916 12.2141V13.1374C72.5914 13.1374 71.8989 13.3357 71.5142 13.7322C71.1354 14.1288 70.946 14.8213 70.946 15.8097V19.2543C70.946 20.0118 70.872 20.6688 70.7241 21.2251C70.5761 21.7874 70.3394 22.2491 70.0138 22.6101C69.6883 22.977 69.2592 23.2493 68.7266 23.4268C68.1998 23.6044 67.5547 23.6932 66.7912 23.6932V22.3438C67.4541 22.3438 67.9808 22.2343 68.3714 22.0153C68.768 21.7963 69.0491 21.4589 69.2148 21.0032C69.3865 20.5534 69.4723 19.9704 69.4723 19.2543V15.3391C69.4723 14.8361 69.5315 14.3922 69.6499 14.0075C69.7682 13.6168 69.9783 13.2884 70.2802 13.022C70.582 12.7557 70.9993 12.5545 71.532 12.4183C72.0705 12.2822 72.7571 12.2141 73.5916 12.2141ZM66.7912 0.965908C67.5547 0.965908 68.1998 1.05469 68.7266 1.23224C69.2592 1.4098 69.6883 1.68205 70.0138 2.049C70.3394 2.41004 70.5761 2.87168 70.7241 3.43395C70.872 3.99029 70.946 4.64725 70.946 5.40483V8.84943C70.946 9.83783 71.1354 10.5303 71.5142 10.9268C71.8989 11.3234 72.5914 11.5217 73.5916 11.5217V12.445C72.7571 12.445 72.0705 12.3769 71.532 12.2408C70.9993 12.1046 70.582 11.9034 70.2802 11.6371C69.9783 11.3707 69.7682 11.0452 69.6499 10.6605C69.5315 10.2699 69.4723 9.82303 69.4723 9.31996V5.40483C69.4723 4.68868 69.3865 4.10275 69.2148 3.64702C69.0491 3.19129 68.768 2.85689 68.3714 2.64382C67.9808 2.42483 67.4541 2.31534 66.7912 2.31534V0.965908ZM73.5916 11.5217V13.1374H71.5586V11.5217H73.5916Z" fill="#151515"/>
</svg>
